#!OML:ASF H:\LiuWeirdWalks\Patient Classification 1\Patient 1\Session 1\male.ASF
:FULLY-SPECIFIED
:DEGREES
293
root 1.53067 17.7957 4.87196 -0.874033 -8.26866 -4.06171
lowerback -3.84343 -1.05665 -2.9778
upperback -2.37985 -1.31625 -1.50681
thorax -0.258143 -0.639027 0.0764397
lowerneck -10.6236 1.38765 7.43381
upperneck 33.4586 -3.24232 9.56041
head 13.2239 0.67152 1.99295
rclavicle -5.76476e-015 9.54166e-015
rhumerus 0.862578 -16.3006 -35.8681
rradius 128.753
rwrist -59.5665
rhand 28.1824 -0.613783
rfingers 7.12502
rthumb 52.0656 -20.6804
lclavicle -5.76476e-015 9.54166e-015
lhumerus -36.1484 34.4095 58.3239
lradius 109.476
lwrist 78.5341
lhand -1.7045 4.56431
lfingers 7.12502
lthumb 23.9568 33.0896
rfemur -5.01369 2.61518 21.0185
rtibia 33.12
rfoot -16.4058 -20.0001
rtoes -6.5141
lfemur 2.16114 0.0273412 -12.8411
ltibia 27.929
lfoot -17.138 31.4887
ltoes -6.0971
294
root 1.54326 17.7837 4.91544 -1.04737 -8.68084 -4.04765
lowerback -4.13641 -1.1034 -2.92009
upperback -2.55827 -1.37374 -1.11386
thorax -0.268274 -0.664394 0.440934
lowerneck -10.5277 1.49958 7.5665
upperneck 33.7936 -2.89979 8.85084
head 13.3149 0.763908 1.7476
rclavicle -2.00773e-014 3.26007e-014
rhumerus 0.675516 -18.317 -37.04
rradius 129.05
rwrist -59.6463
rhand 25.2609 0.424474
rfingers 7.12502
rthumb 49.4006 -21.1074
lclavicle -2.00773e-014 3.26007e-014
lhumerus -36.5087 33.2336 57.6529
lradius 110.745
lwrist 77.302
lhand -0.928896 4.59535
lfingers 7.12502
lthumb 24.7004 33.0209
rfemur -4.76662 2.84255 20.9463
rtibia 33.2274
rfoot -16.5308 -19.9041
rtoes -6.64929
lfemur 2.60829 -0.000613538 -13.0134
ltibia 27.9203
lfoot -17.4548 31.8288
ltoes -5.96259
295
root 1.55536 17.7717 4.95696 -1.21537 -9.04736 -4.04598
lowerback -4.39561 -1.17267 -2.85929
upperback -2.72824 -1.46289 -0.707518
thorax -0.286747 -0.705284 0.816445
lowerneck -10.4298 1.62178 7.70323
upperneck 34.1161 -2.53573 8.13674
head 13.4042 0.863999 1.50131
rclavicle 8.74653e-015 1.43125e-014
rhumerus 0.450169 -20.3427 -38.152
rradius 129.331
rwrist -59.8354
rhand 22.4795 1.3107
rfingers 7.12502
rthumb 46.8375 -21.4268
lclavicle 8.74653e-015 1.43125e-014
lhumerus -36.8102 31.9702 56.9405
lradius 111.993
lwrist 76.0748
lhand -0.14641 4.62408
lfingers 7.12502
lthumb 25.4501 32.9449
rfemur -4.5278 3.08027 20.9007
rtibia 33.3372
rfoot -16.6469 -19.86
rtoes -6.77189
lfemur 3.02875 -0.00970567 -13.1532
ltibia 27.9177
lfoot -17.7569 32.1033
ltoes -5.85215
296
root 1.56701 17.7599 4.9962 -1.37538 -9.36199 -4.05851
lowerback -4.62719 -1.2714 -2.80119
upperback -2.88171 -1.59216 -0.286265
thorax -0.300669 -0.766089 1.20711
lowerneck -10.354 1.76603 7.88278
upperneck 34.3932 -2.13202 7.38948
head 13.4826 0.980282 1.23772
rclavicle -2.00773e-014 7.15625e-015
rhumerus 0.205594 -22.3916 -39.193
rradius 129.59
rwrist -60.1716
rhand 19.8183 1.97079
rfingers 7.12502
rthumb 44.3658 -21.7743
lclavicle -2.00773e-014 7.15625e-015
lhumerus -37.0434 30.6428 56.1886
lradius 113.214
lwrist 74.8296
lhand 0.646638 4.68707
lfingers 7.12502
lthumb 26.2096 32.8974
rfemur -4.29615 3.32043 20.8823
rtibia 33.4433
rfoot -16.7503 -19.8632
rtoes -6.87914
lfemur 3.41643 0.000254524 -13.2571
ltibia 27.9259
lfoot -18.0333 32.3107
ltoes -5.77657
297
root 1.57815 17.7484 5.03284 -1.52559 -9.62289 -4.1095
lowerback -4.82331 -1.3926 -2.72202
upperback -3.01843 -1.75342 0.154255
thorax -0.314156 -0.843017 1.6046
lowerneck -10.33 1.91783 8.05607
upperneck 34.6406 -1.71853 6.6513
head 13.5651 1.10018 0.979042
rclavicle 6.95746e-016 3.97569e-015
rhumerus -0.0682745 -24.4729 -40.1432
rradius 129.813
rwrist -60.5842
rhand 17.258 2.42733
rfingers 7.12502
rthumb 41.9727 -22.1719
lclavicle 6.95746e-016 3.97569e-015
lhumerus -37.2091 29.2435 55.4007
lradius 114.388
lwrist 73.5803
lhand 1.45685 4.76152
lfingers 7.12502
lthumb 26.985 32.8542
rfemur -4.06861 3.56571 20.9199
rtibia 33.5416
rfoot -16.8358 -19.9199
rtoes -6.97914
lfemur 3.77154 0.0241239 -13.2976
ltibia 27.946
lfoot -18.275 32.4569
ltoes -5.72702
298
root 1.58937 17.7371 5.06756 -1.67667 -9.82566 -4.17072
lowerback -4.98353 -1.53691 -2.64391
upperback -3.13865 -1.94663 0.60505
thorax -0.326714 -0.935921 2.01215
lowerneck -10.3358 2.07831 8.22389
upperneck 34.8814 -1.29338 5.92152
head 13.657 1.22489 0.72573
rclavicle -3.38928e-014 -1.59028e-014
rhumerus -0.377741 -26.5733 -40.9848
rradius 129.994
rwrist -61.0893
rhand 14.7477 2.69307
rfingers 7.12502
rthumb 39.6141 -22.6482
lclavicle -3.38928e-014 -1.59028e-014
lhumerus -37.3188 27.7833 54.5811
lradius 115.514
lwrist 72.3187
lhand 2.29892 4.86175
lfingers 7.12502
lthumb 27.7904 32.8271
rfemur -3.83291 3.79224 20.9739
rtibia 33.6299
rfoot -16.9113 -20.007
rtoes -7.07235
lfemur 4.10473 0.0597886 -13.309
ltibia 27.9745
lfoot -18.4822 32.5462
ltoes -5.711
299
root 1.60076 17.7262 5.10009 -1.82121 -9.97792 -4.23389
lowerback -5.11086 -1.69726 -2.57326
upperback -3.2472 -2.16197 1.06049
thorax -0.34145 -1.03983 2.42821
lowerneck -10.3807 2.23817 8.38724
upperneck 35.118 -0.873963 5.20521
head 13.762 1.34773 0.477286
rclavicle -3.12092e-014 -6.36111e-015
rhumerus -0.744541 -28.6488 -41.6985
rradius 130.107
rwrist -61.508
rhand 12.204 2.93604
rfingers 7.12502
rthumb 37.2136 -23.0729
lclavicle -3.12092e-014 -6.36111e-015
lhumerus -37.3643 26.2715 53.7278
lradius 116.579
lwrist 71.0487
lhand 3.16701 5.00782
lfingers 7.12502
lthumb 28.6201 32.8363
rfemur -3.60244 3.99824 21.0331
rtibia 33.7109
rfoot -16.9798 -20.1155
rtoes -7.15748
lfemur 4.41005 0.105836 -13.3036
ltibia 28.0045
lfoot -18.6502 32.5921
ltoes -5.73105
300
root 1.61235 17.7158 5.13051 -1.96119 -10.0779 -4.29187
lowerback -5.20204 -1.87313 -2.51912
upperback -3.34434 -2.39831 1.51769
thorax -0.359692 -1.15408 2.85532
lowerneck -10.4589 2.39346 8.549
upperneck 35.3406 -0.461258 4.49085
head 13.8736 1.46648 0.228037
rclavicle 2.79789e-014 -2.38542e-014
rhumerus -1.18778 -30.6839 -42.2662
rradius 130.144
rwrist -61.796
rhand 9.56726 3.17216
rfingers 7.12502
rthumb 34.7158 -23.4498
lclavicle 2.79789e-014 -2.38542e-014
lhumerus -37.3681 24.7146 52.84
lradius 117.586
lwrist 69.7711
lhand 4.08453 5.18271
lfingers 7.12502
lthumb 29.4964 32.86
rfemur -3.37694 4.18097 21.0899
rtibia 33.7871
rfoot -17.0455 -20.2454
rtoes -7.24372
lfemur 4.69155 0.143833 -13.2935
ltibia 28.0302
lfoot -18.8022 32.6035
ltoes -5.75469
301
root 1.6243 17.7059 5.15859 -2.09509 -10.1282 -4.31756
lowerback -5.2693 -2.06321 -2.50696
upperback -3.42614 -2.65245 1.96771
thorax -0.369501 -1.27706 3.2985
lowerneck -10.5449 2.54282 8.69335
upperneck 35.5442 -0.0549725 3.7927
head 13.9838 1.5804 -0.0139216
rclavicle -9.7653e-015 -8.64713e-015
rhumerus -1.68923 -32.6919 -42.7086
rradius 130.099
rwrist -61.9325
rhand 6.87431 3.3797
rfingers 7.12502
rthumb 32.156 -23.7948
lclavicle -9.7653e-015 -8.64713e-015
lhumerus -37.2973 23.1334 51.9297
lradius 118.502
lwrist 68.478
lhand 5.02073 5.31338
lfingers 7.12502
lthumb 30.3897 32.8294
rfemur -3.16738 4.33331 21.1107
rtibia 33.8626
rfoot -17.1162 -20.3849
rtoes -7.3178
lfemur 4.94362 0.181157 -13.3089
ltibia 28.0495
lfoot -18.9415 32.581
ltoes -5.7783
302
root 1.63688 17.6967 5.18395 -2.21373 -10.1321 -4.33465
lowerback -5.31187 -2.26858 -2.51366
upperback -3.50111 -2.9268 2.41805
thorax -0.379698 -1.41008 3.75285
lowerneck -10.6402 2.68986 8.84068
upperneck 35.7092 0.354011 3.08785
head 14.0839 1.69263 -0.260233
rclavicle -1.38528e-014 -1.29459e-014
rhumerus -2.26752 -34.6487 -43.0035
rradius 129.965
rwrist -61.9323
rhand 4.14781 3.53138
rfingers 7.12502
rthumb 29.5568 -24.1352
lclavicle -1.38528e-014 -1.29459e-014
lhumerus -37.1861 21.5242 50.9822
lradius 119.341
lwrist 67.1682
lhand 5.97236 5.40852
lfingers 7.12502
lthumb 31.297 32.753
rfemur -2.98096 4.45882 21.1208
rtibia 33.9383
rfoot -17.1894 -20.5366
rtoes -7.38022
lfemur 5.16093 0.207417 -13.3283
ltibia 28.0618
lfoot -19.075 32.5331
ltoes -5.7932
303
root 1.65025 17.6881 5.20635 -2.31804 -10.1059 -4.34523
lowerback -5.3329 -2.47869 -2.52907
upperback -3.56444 -3.20772 2.86579
thorax -0.384726 -1.54668 4.2104
lowerneck -10.69 2.83367 8.98955
upperneck 35.7963 0.770802 2.38263
head 14.1437 1.80448 -0.50821
rclavicle 3.97569e-015 -1.39149e-014
rhumerus -2.91318 -36.5613 -43.1663
rradius 129.727
rwrist -61.7553
rhand 1.39689 3.67409
rfingers 7.12502
rthumb 26.9277 -24.4275
lclavicle 3.97569e-015 -1.39149e-014
lhumerus -37.027 19.8861 50.0184
lradius 120.08
lwrist 65.8408
lhand 6.90042 5.43536
lfingers 7.12502
lthumb 32.1809 32.6049
rfemur -2.82085 4.56912 21.1216
rtibia 34.0173
rfoot -17.2628 -20.693
rtoes -7.43248
lfemur 5.34724 0.225817 -13.3529
ltibia 28.0667
lfoot -19.2104 32.4709
ltoes -5.79071
